<mxfile host="Electron" modified="2023-12-05T17:31:20.134Z" agent="Mozilla/5.0 (Windows NT 10.0; Win64; x64) AppleWebKit/537.36 (KHTML, like Gecko) draw.io/22.0.3 Chrome/114.0.5735.289 Electron/25.8.4 Safari/537.36" etag="TIuENpk64wWp85PREaH2" version="22.0.3" type="device">
  <diagram id="C5RBs43oDa-KdzZeNtuy" name="Page-1">
    <mxGraphModel dx="1036" dy="606" grid="1" gridSize="10" guides="1" tooltips="1" connect="1" arrows="1" fold="1" page="1" pageScale="1" pageWidth="827" pageHeight="1169" math="0" shadow="0">
      <root>
        <mxCell id="WIyWlLk6GJQsqaUBKTNV-0" />
        <mxCell id="WIyWlLk6GJQsqaUBKTNV-1" parent="WIyWlLk6GJQsqaUBKTNV-0" />
        <mxCell id="LQbPc4eK8awAvDgIK7WJ-2" value="" style="edgeStyle=orthogonalEdgeStyle;rounded=0;orthogonalLoop=1;jettySize=auto;html=1;" edge="1" parent="WIyWlLk6GJQsqaUBKTNV-1" source="LQbPc4eK8awAvDgIK7WJ-0" target="LQbPc4eK8awAvDgIK7WJ-1">
          <mxGeometry relative="1" as="geometry" />
        </mxCell>
        <mxCell id="LQbPc4eK8awAvDgIK7WJ-0" value="Start" style="ellipse;whiteSpace=wrap;html=1;" vertex="1" parent="WIyWlLk6GJQsqaUBKTNV-1">
          <mxGeometry x="354" width="120" height="80" as="geometry" />
        </mxCell>
        <mxCell id="LQbPc4eK8awAvDgIK7WJ-6" value="" style="edgeStyle=orthogonalEdgeStyle;rounded=0;orthogonalLoop=1;jettySize=auto;html=1;" edge="1" parent="WIyWlLk6GJQsqaUBKTNV-1" source="LQbPc4eK8awAvDgIK7WJ-1" target="LQbPc4eK8awAvDgIK7WJ-5">
          <mxGeometry relative="1" as="geometry" />
        </mxCell>
        <mxCell id="LQbPc4eK8awAvDgIK7WJ-1" value="FILE *f = NULL,&lt;br&gt;random[50]" style="whiteSpace=wrap;html=1;" vertex="1" parent="WIyWlLk6GJQsqaUBKTNV-1">
          <mxGeometry x="354" y="120" width="120" height="60" as="geometry" />
        </mxCell>
        <mxCell id="LQbPc4eK8awAvDgIK7WJ-10" value="" style="edgeStyle=orthogonalEdgeStyle;rounded=0;orthogonalLoop=1;jettySize=auto;html=1;" edge="1" parent="WIyWlLk6GJQsqaUBKTNV-1" source="LQbPc4eK8awAvDgIK7WJ-5" target="LQbPc4eK8awAvDgIK7WJ-9">
          <mxGeometry relative="1" as="geometry" />
        </mxCell>
        <mxCell id="LQbPc4eK8awAvDgIK7WJ-5" value="f = fopen(&quot;w&quot;)" style="whiteSpace=wrap;html=1;" vertex="1" parent="WIyWlLk6GJQsqaUBKTNV-1">
          <mxGeometry x="354" y="220" width="120" height="60" as="geometry" />
        </mxCell>
        <mxCell id="LQbPc4eK8awAvDgIK7WJ-12" value="true" style="edgeStyle=orthogonalEdgeStyle;rounded=0;orthogonalLoop=1;jettySize=auto;html=1;" edge="1" parent="WIyWlLk6GJQsqaUBKTNV-1" source="LQbPc4eK8awAvDgIK7WJ-9" target="LQbPc4eK8awAvDgIK7WJ-11">
          <mxGeometry relative="1" as="geometry" />
        </mxCell>
        <mxCell id="LQbPc4eK8awAvDgIK7WJ-18" value="false" style="edgeStyle=orthogonalEdgeStyle;rounded=0;orthogonalLoop=1;jettySize=auto;html=1;exitX=1;exitY=0.5;exitDx=0;exitDy=0;entryX=1;entryY=0.5;entryDx=0;entryDy=0;" edge="1" parent="WIyWlLk6GJQsqaUBKTNV-1" source="LQbPc4eK8awAvDgIK7WJ-9" target="LQbPc4eK8awAvDgIK7WJ-17">
          <mxGeometry relative="1" as="geometry">
            <Array as="points">
              <mxPoint x="530" y="360" />
              <mxPoint x="530" y="760" />
            </Array>
          </mxGeometry>
        </mxCell>
        <mxCell id="LQbPc4eK8awAvDgIK7WJ-9" value="f != NULL" style="rhombus;whiteSpace=wrap;html=1;" vertex="1" parent="WIyWlLk6GJQsqaUBKTNV-1">
          <mxGeometry x="374" y="320" width="80" height="80" as="geometry" />
        </mxCell>
        <mxCell id="LQbPc4eK8awAvDgIK7WJ-14" value="" style="edgeStyle=orthogonalEdgeStyle;rounded=0;orthogonalLoop=1;jettySize=auto;html=1;" edge="1" parent="WIyWlLk6GJQsqaUBKTNV-1" source="LQbPc4eK8awAvDgIK7WJ-11" target="LQbPc4eK8awAvDgIK7WJ-13">
          <mxGeometry relative="1" as="geometry" />
        </mxCell>
        <mxCell id="LQbPc4eK8awAvDgIK7WJ-11" value="&quot;%s&quot;, &amp;amp;random" style="shape=parallelogram;perimeter=parallelogramPerimeter;whiteSpace=wrap;html=1;fixedSize=1;" vertex="1" parent="WIyWlLk6GJQsqaUBKTNV-1">
          <mxGeometry x="354" y="440" width="120" height="60" as="geometry" />
        </mxCell>
        <mxCell id="LQbPc4eK8awAvDgIK7WJ-16" value="" style="edgeStyle=orthogonalEdgeStyle;rounded=0;orthogonalLoop=1;jettySize=auto;html=1;" edge="1" parent="WIyWlLk6GJQsqaUBKTNV-1" source="LQbPc4eK8awAvDgIK7WJ-13" target="LQbPc4eK8awAvDgIK7WJ-15">
          <mxGeometry relative="1" as="geometry" />
        </mxCell>
        <mxCell id="LQbPc4eK8awAvDgIK7WJ-13" value="f, &quot;%s&quot;, random" style="shape=parallelogram;perimeter=parallelogramPerimeter;whiteSpace=wrap;html=1;fixedSize=1;" vertex="1" parent="WIyWlLk6GJQsqaUBKTNV-1">
          <mxGeometry x="354" y="530" width="120" height="60" as="geometry" />
        </mxCell>
        <mxCell id="LQbPc4eK8awAvDgIK7WJ-19" value="" style="edgeStyle=orthogonalEdgeStyle;rounded=0;orthogonalLoop=1;jettySize=auto;html=1;" edge="1" parent="WIyWlLk6GJQsqaUBKTNV-1" source="LQbPc4eK8awAvDgIK7WJ-15" target="LQbPc4eK8awAvDgIK7WJ-17">
          <mxGeometry relative="1" as="geometry" />
        </mxCell>
        <mxCell id="LQbPc4eK8awAvDgIK7WJ-15" value="fclose(f)" style="whiteSpace=wrap;html=1;" vertex="1" parent="WIyWlLk6GJQsqaUBKTNV-1">
          <mxGeometry x="354" y="620" width="120" height="60" as="geometry" />
        </mxCell>
        <mxCell id="LQbPc4eK8awAvDgIK7WJ-17" value="End" style="ellipse;whiteSpace=wrap;html=1;" vertex="1" parent="WIyWlLk6GJQsqaUBKTNV-1">
          <mxGeometry x="354" y="720" width="120" height="80" as="geometry" />
        </mxCell>
      </root>
    </mxGraphModel>
  </diagram>
</mxfile>
